<?xml version="1.0" encoding="UTF-8"?>
<svg id="_喇뒨쏛_2" data-name="喇뒨쏛 2" xmlns="http://www.w3.org/2000/svg" width="37.44" height="17.52" viewBox="0 0 37.44 17.52">
  <defs>
    <style>
      .cls-1 {
        fill: #3a3a3a;
      }

      .cls-2 {
        fill: none;
        stroke: #3a3a3a;
        stroke-miterlimit: 10;
      }
    </style>
  </defs>
  <g id="_喇뒨쏛_1-2" data-name="喇뒨쏛 1">
    <g>
      <path class="cls-1" d="M0,1v15.52c0,.55.45,1,1,1h15.52c.55,0,1-.45,1-1V1c0-.55-.45-1-1-1H1C.45,0,0,.45,0,1ZM5.73,4.84c.55,0,1,.45,1,1s-.45,1-1,1-1-.45-1-1,.45-1,1-1ZM13.21,12.61s-8.13.11-8.43.06c-.25-.05-.74-.15-.94-.53-.37-.67.36-1.8,1.08-2.41.37-.31.95-.81,1.47-.64.62.2.51,1.15,1.39,1.58.39.19.76.18.89.17.04,0,.65-.14.94-.67.72-1.32.76-2.07,1.08-2.38.32-.31.98-.15,1.22.11.86.94,1.86,2.7,1.86,3.74,0,.17.14.64-.55.97Z"/>
      <line class="cls-2" x1="19.92" y1=".93" x2="37.44" y2=".93"/>
      <line class="cls-2" x1="19.92" y1="4.06" x2="34.85" y2="4.06"/>
      <line class="cls-2" x1="19.92" y1="7.19" x2="36.41" y2="7.19"/>
      <line class="cls-2" x1="19.92" y1="10.33" x2="36.41" y2="10.33"/>
      <line class="cls-2" x1="19.92" y1="13.46" x2="37.44" y2="13.46"/>
      <line class="cls-2" x1="19.92" y1="16.59" x2="36.41" y2="16.59"/>
    </g>
  </g>
</svg>